<svg xmlns="http://www.w3.org/2000/svg" width="30" height="30" viewBox="0 0 30 30">
  <path
    d="M15,0A15,15,0,1,1,0,15,15,15,0,0,1,15,0Zm1.61,10.61c.06-.5.09-1,.1-1.5a4.77,4.77,0,0,0-.34-1.87A1.3,1.3,0,0,0,15,6.53a1.68,1.68,0,0,0-1.29.52,2.1,2.1,0,0,0-.47,1.44,20,20,0,0,0,.11,2.25l.34,5.37A5.87,5.87,0,0,0,14,17.66a.89.89,0,0,0,1,.51.93.93,0,0,0,.86-.53,5.22,5.22,0,0,0,.27-1.51ZM16.2,23a1.64,1.64,0,0,0,.51-1.23,1.74,1.74,0,0,0-1.8-1.65,1.62,1.62,0,0,0-1.6,1.67A1.49,1.49,0,0,0,13.84,23a1.62,1.62,0,0,0,1.18.45A1.68,1.68,0,0,0,16.2,23Z" />
  </svg>
