<?xml version="1.0" standalone="no"?>
<!DOCTYPE svg PUBLIC "-//W3C//DTD SVG 20010904//EN"
 "http://www.w3.org/TR/2001/REC-SVG-20010904/DTD/svg10.dtd">
<svg version="1.0" xmlns="http://www.w3.org/2000/svg"
 width="300.000000pt" height="300.000000pt" viewBox="0 0 300.000000 300.000000"
 preserveAspectRatio="xMidYMid meet">
<metadata>
Created by potrace 1.14, written by Peter Selinger 2001-2017
</metadata>
<g transform="translate(0.000000,300.000000) scale(0.100000,-0.100000)"
fill="#000000" stroke="none">
<path d="M1398 2995 c-2 -1 -29 -6 -61 -9 -32 -4 -64 -9 -70 -11 -7 -3 -23 -6
-37 -9 -93 -15 -148 -41 -174 -81 -55 -83 9 -205 107 -205 13 0 60 9 104 20
44 11 100 22 124 25 55 6 245 6 282 0 15 -3 55 -10 90 -16 146 -25 328 -106
462 -206 79 -59 238 -219 233 -235 -2 -5 -28 -23 -58 -41 -30 -18 -56 -41 -58
-50 -3 -13 35 -35 160 -95 90 -43 189 -92 221 -107 74 -37 83 -29 91 85 4 47
9 99 11 115 8 49 15 115 21 202 7 103 0 108 -85 57 l-62 -37 -17 24 c-56 80
-186 211 -298 299 -145 114 -406 227 -589 256 -22 3 -58 9 -81 13 -39 7 -309
12 -316 6z"/>
<path d="M505 2484 c-33 -14 -69 -29 -80 -34 -11 -5 -78 -32 -150 -61 -72 -29
-135 -57 -142 -63 -17 -15 -8 -25 60 -70 32 -21 56 -43 53 -49 -65 -142 -117
-315 -135 -442 -9 -73 -7 -344 4 -405 16 -88 63 -258 85 -305 58 -129 81 -172
128 -245 87 -135 180 -240 230 -261 63 -25 137 3 165 64 32 68 20 107 -63 197
-151 165 -266 428 -286 650 -12 128 -3 268 22 375 19 81 76 235 87 235 5 0 28
-13 52 -30 24 -16 54 -31 67 -32 23 -3 23 -2 22 92 -1 74 -9 322 -13 398 -1
19 -40 14 -106 -14z"/>
<path d="M1119 2197 c-19 -12 -44 -41 -55 -64 -21 -41 -21 -50 -20 -601 l1
-558 25 -37 c33 -49 97 -81 149 -73 21 3 86 33 147 69 60 35 242 141 404 237
162 95 321 188 352 207 31 18 67 47 78 64 44 60 36 151 -18 201 -15 14 -88 63
-162 108 -74 46 -193 119 -265 162 -71 44 -195 120 -275 169 -80 49 -166 101
-192 114 -61 32 -123 33 -169 2z"/>
<path d="M2725 1374 c-53 -18 -66 -36 -104 -146 -104 -300 -308 -537 -578
-672 -116 -58 -237 -97 -348 -112 -27 -3 -54 -7 -60 -8 -6 0 -11 30 -11 74 -2
94 -10 97 -106 35 -40 -26 -111 -71 -158 -101 -47 -30 -106 -68 -132 -84 -27
-17 -48 -34 -48 -39 0 -19 379 -311 404 -311 9 0 16 1 17 3 0 1 3 34 5 72 3
39 8 73 12 77 4 3 34 9 67 12 297 27 624 184 840 406 93 95 91 93 128 142 94
126 172 273 221 422 31 94 32 130 6 173 -36 60 -90 80 -155 57z"/>
</g>
</svg>
