<svg xmlns="http://www.w3.org/2000/svg" width="30" height="30" viewBox="0 0 30 30">
  <path
    d="M29.67,26c.9,1.71-.09,4-1.72,4H2.06C.43,30-.56,27.73.34,26L13.28,1.15a1.88,1.88,0,0,1,3.45,0ZM16.54,12.33V10.85A5,5,0,0,0,16.23,9,1.38,1.38,0,0,0,15,8.24a1.68,1.68,0,0,0-1.3.53,2.09,2.09,0,0,0-.47,1.44,22,22,0,0,0,.1,2.25l.35,5.37A4.59,4.59,0,0,0,14,19.38a.88.88,0,0,0,.83.51.93.93,0,0,0,.86-.52,4.72,4.72,0,0,0,.34-1.52Zm-.35,12.42a1.53,1.53,0,0,0,.5-1.22,1.7,1.7,0,0,0-2.9-1.2,1.67,1.67,0,0,0-.47,1.2,1.45,1.45,0,0,0,.5,1.22,1.78,1.78,0,0,0,2.37,0Z" />
  </svg>
